<mxfile host="www.draw.io" modified="2020-01-15T07:34:44.095Z" agent="Mozilla/5.0 (Windows NT 10.0; Win64; x64) AppleWebKit/537.36 (KHTML, like Gecko) Chrome/79.0.3945.88 Safari/537.36" etag="qlQEldCV0N2uXLUwj2b0" version="12.5.3" type="github" pages="2">
  <diagram id="YTd3EIlCg63sOyMqUYdE" name="Page-1">
    <mxGraphModel dx="4063" dy="2297" grid="1" gridSize="10" guides="1" tooltips="1" connect="1" arrows="1" fold="1" page="1" pageScale="1" pageWidth="827" pageHeight="1169" math="0" shadow="0">
      <root>
        <mxCell id="0"/>
        <mxCell id="1" parent="0"/>
        <mxCell id="hu48EoF5x-4tmz7tVnTY-1" value="" style="verticalLabelPosition=bottom;html=1;verticalAlign=top;align=center;shape=mxgraph.floorplan.wallCorner;fillColor=#000000;" parent="1" vertex="1">
          <mxGeometry x="280" y="40" width="490" height="450" as="geometry"/>
        </mxCell>
        <mxCell id="hu48EoF5x-4tmz7tVnTY-3" value="" style="verticalLabelPosition=bottom;html=1;verticalAlign=top;align=center;shape=mxgraph.floorplan.wall;fillColor=#000000;direction=south;" parent="1" vertex="1">
          <mxGeometry x="278" y="546" width="10" height="294" as="geometry"/>
        </mxCell>
        <mxCell id="hu48EoF5x-4tmz7tVnTY-7" value="" style="verticalLabelPosition=bottom;html=1;verticalAlign=top;align=center;shape=mxgraph.floorplan.wallU;fillColor=#000000;rotation=-180;" parent="1" vertex="1">
          <mxGeometry x="276" y="883" width="490" height="601" as="geometry"/>
        </mxCell>
        <mxCell id="hu48EoF5x-4tmz7tVnTY-8" value="" style="verticalLabelPosition=bottom;html=1;verticalAlign=top;align=center;shape=mxgraph.floorplan.wall;fillColor=#000000;direction=south;" parent="1" vertex="1">
          <mxGeometry x="756" y="50" width="10" height="991" as="geometry"/>
        </mxCell>
        <mxCell id="hu48EoF5x-4tmz7tVnTY-9" value="&lt;font style=&quot;font-size: 18px&quot;&gt;8400&lt;/font&gt;" style="shape=dimension;whiteSpace=wrap;html=1;align=center;points=[];verticalAlign=bottom;spacingBottom=-5;labelBackgroundColor=#ffffff" parent="1" vertex="1">
          <mxGeometry x="276" y="1470" width="490" height="40" as="geometry"/>
        </mxCell>
        <mxCell id="hu48EoF5x-4tmz7tVnTY-10" value="&lt;font style=&quot;font-size: 18px&quot;&gt;8100&lt;/font&gt;" style="shape=dimension;direction=north;whiteSpace=wrap;html=1;align=right;points=[];verticalAlign=middle;labelBackgroundColor=#ffffff" parent="1" vertex="1">
          <mxGeometry x="770" y="40" width="40" height="480" as="geometry"/>
        </mxCell>
        <mxCell id="hu48EoF5x-4tmz7tVnTY-11" value="&lt;font style=&quot;font-size: 18px&quot;&gt;8100&lt;/font&gt;" style="shape=dimension;direction=north;whiteSpace=wrap;html=1;align=right;points=[];verticalAlign=middle;labelBackgroundColor=#ffffff" parent="1" vertex="1">
          <mxGeometry x="764" y="1000" width="46" height="481" as="geometry"/>
        </mxCell>
        <mxCell id="hu48EoF5x-4tmz7tVnTY-12" value="&lt;font style=&quot;font-size: 18px&quot;&gt;8100&lt;/font&gt;" style="shape=dimension;direction=north;whiteSpace=wrap;html=1;align=right;points=[];verticalAlign=middle;labelBackgroundColor=#ffffff" parent="1" vertex="1">
          <mxGeometry x="770" y="520" width="40" height="480" as="geometry"/>
        </mxCell>
        <mxCell id="hu48EoF5x-4tmz7tVnTY-16" value="" style="shape=rect;dashed=0;shadow=0;html=1;whiteSpace=wrap;rotation=-180;" parent="1" vertex="1">
          <mxGeometry x="286" y="440" width="470" height="12.5" as="geometry"/>
        </mxCell>
        <mxCell id="hu48EoF5x-4tmz7tVnTY-17" value="&lt;font style=&quot;font-size: 24px&quot;&gt;动环实验室&lt;br&gt;60平米&lt;/font&gt;" style="text;html=1;align=center;verticalAlign=middle;resizable=0;points=[];autosize=1;rotation=90;" parent="1" vertex="1">
          <mxGeometry x="431.5" y="165" width="140" height="40" as="geometry"/>
        </mxCell>
        <mxCell id="hu48EoF5x-4tmz7tVnTY-18" value="&lt;font style=&quot;font-size: 24px&quot;&gt;验收实验室&lt;br&gt;60平米&lt;/font&gt;" style="text;html=1;align=center;verticalAlign=middle;resizable=0;points=[];autosize=1;rotation=90;" parent="1" vertex="1">
          <mxGeometry x="438" y="1134" width="140" height="40" as="geometry"/>
        </mxCell>
        <mxCell id="hu48EoF5x-4tmz7tVnTY-22" value="" style="verticalLabelPosition=bottom;html=1;verticalAlign=top;align=center;shape=mxgraph.floorplan.wallCorner;fillColor=#000000;" parent="1" vertex="1">
          <mxGeometry x="468" y="751" width="294" height="220" as="geometry"/>
        </mxCell>
        <mxCell id="hu48EoF5x-4tmz7tVnTY-27" value="&lt;font style=&quot;font-size: 18px&quot;&gt;4100&lt;/font&gt;" style="shape=dimension;direction=west;whiteSpace=wrap;html=1;align=center;points=[];verticalAlign=top;spacingTop=-8;labelBackgroundColor=#ffffff;rotation=90;" parent="1" vertex="1">
          <mxGeometry x="653" y="851" width="225" height="30" as="geometry"/>
        </mxCell>
        <mxCell id="hu48EoF5x-4tmz7tVnTY-28" value="&lt;font style=&quot;font-size: 24px&quot;&gt;储物间 20平米&lt;/font&gt;" style="text;html=1;align=center;verticalAlign=middle;resizable=0;points=[];autosize=1;rotation=90;" parent="1" vertex="1">
          <mxGeometry x="547" y="851" width="170" height="20" as="geometry"/>
        </mxCell>
        <mxCell id="hu48EoF5x-4tmz7tVnTY-31" value="" style="verticalLabelPosition=bottom;html=1;verticalAlign=top;align=center;shape=mxgraph.floorplan.doorLeft;aspect=fixed;rotation=-90;" parent="1" vertex="1">
          <mxGeometry x="283.34" y="485.78" width="58.88" height="62.56" as="geometry"/>
        </mxCell>
        <mxCell id="hu48EoF5x-4tmz7tVnTY-38" value="&lt;font style=&quot;font-size: 18px&quot;&gt;7100&lt;/font&gt;" style="shape=dimension;whiteSpace=wrap;html=1;align=center;points=[];verticalAlign=bottom;spacingBottom=-5;labelBackgroundColor=#ffffff;rotation=-90;" parent="1" vertex="1">
          <mxGeometry x="567.82" y="231.2" width="403.88" height="21.5" as="geometry"/>
        </mxCell>
        <mxCell id="hu48EoF5x-4tmz7tVnTY-39" value="" style="verticalLabelPosition=bottom;html=1;verticalAlign=top;align=center;shape=mxgraph.floorplan.doorRight;aspect=fixed;rotation=-90;" parent="1" vertex="1">
          <mxGeometry x="473.26000000000005" y="751" width="56.48" height="60" as="geometry"/>
        </mxCell>
        <mxCell id="hu48EoF5x-4tmz7tVnTY-40" value="" style="shape=rect;dashed=0;shadow=0;html=1;whiteSpace=wrap;rotation=-180;" parent="1" vertex="1">
          <mxGeometry x="288" y="971" width="468" height="12.5" as="geometry"/>
        </mxCell>
        <mxCell id="hu48EoF5x-4tmz7tVnTY-25" value="5100" style="shape=dimension;whiteSpace=wrap;html=1;align=center;points=[];verticalAlign=bottom;spacingBottom=-5;labelBackgroundColor=#ffffff" parent="1" vertex="1">
          <mxGeometry x="468" y="961.5" width="296" height="22" as="geometry"/>
        </mxCell>
        <mxCell id="hu48EoF5x-4tmz7tVnTY-42" value="" style="verticalLabelPosition=bottom;html=1;verticalAlign=top;align=center;shape=mxgraph.floorplan.doorLeft;aspect=fixed;" parent="1" vertex="1">
          <mxGeometry x="402.12" y="971" width="65.88" height="70" as="geometry"/>
        </mxCell>
        <mxCell id="hu48EoF5x-4tmz7tVnTY-43" value="" style="verticalLabelPosition=bottom;html=1;verticalAlign=top;align=center;shape=mxgraph.floorplan.doorRight;aspect=fixed;rotation=0;" parent="1" vertex="1">
          <mxGeometry x="700" y="440" width="56" height="59.5" as="geometry"/>
        </mxCell>
        <mxCell id="hu48EoF5x-4tmz7tVnTY-44" value="&lt;font style=&quot;font-size: 24px&quot;&gt;工作区&lt;br&gt;30平米&lt;/font&gt;" style="text;html=1;align=center;verticalAlign=middle;resizable=0;points=[];autosize=1;rotation=90;" parent="1" vertex="1">
          <mxGeometry x="481" y="577" width="90" height="40" as="geometry"/>
        </mxCell>
        <mxCell id="hu48EoF5x-4tmz7tVnTY-46" value="" style="verticalLabelPosition=bottom;html=1;verticalAlign=top;align=center;shape=mxgraph.floorplan.doorLeft;aspect=fixed;rotation=-90;" parent="1" vertex="1">
          <mxGeometry x="283.34" y="820.44" width="58.88" height="62.56" as="geometry"/>
        </mxCell>
      </root>
    </mxGraphModel>
  </diagram>
  <diagram name="实验室配置规划" id="a96T75f8o9OR3SNXtb-d">
    <mxGraphModel dx="1662" dy="804" grid="1" gridSize="10" guides="1" tooltips="1" connect="1" arrows="1" fold="1" page="1" pageScale="1" pageWidth="827" pageHeight="1169" math="0" shadow="1">
      <root>
        <mxCell id="7wpPZPEq17KUTbX_LZ4O-0"/>
        <mxCell id="7wpPZPEq17KUTbX_LZ4O-1" parent="7wpPZPEq17KUTbX_LZ4O-0"/>
        <mxCell id="7wpPZPEq17KUTbX_LZ4O-2" value="" style="verticalLabelPosition=bottom;html=1;verticalAlign=top;align=center;shape=mxgraph.floorplan.wallCorner;fillColor=#000000;" parent="7wpPZPEq17KUTbX_LZ4O-1" vertex="1">
          <mxGeometry x="276" y="40" width="490" height="450" as="geometry"/>
        </mxCell>
        <mxCell id="7wpPZPEq17KUTbX_LZ4O-3" value="" style="verticalLabelPosition=bottom;html=1;verticalAlign=top;align=center;shape=mxgraph.floorplan.wall;fillColor=#000000;direction=south;" parent="7wpPZPEq17KUTbX_LZ4O-1" vertex="1">
          <mxGeometry x="276" y="490" width="10" height="390" as="geometry"/>
        </mxCell>
        <mxCell id="7wpPZPEq17KUTbX_LZ4O-4" value="" style="verticalLabelPosition=bottom;html=1;verticalAlign=top;align=center;shape=mxgraph.floorplan.wallU;fillColor=#000000;rotation=-180;" parent="7wpPZPEq17KUTbX_LZ4O-1" vertex="1">
          <mxGeometry x="276" y="883" width="490" height="598" as="geometry"/>
        </mxCell>
        <mxCell id="7wpPZPEq17KUTbX_LZ4O-5" value="" style="verticalLabelPosition=bottom;html=1;verticalAlign=top;align=center;shape=mxgraph.floorplan.wall;fillColor=#000000;direction=south;" parent="7wpPZPEq17KUTbX_LZ4O-1" vertex="1">
          <mxGeometry x="756" y="50" width="10" height="991" as="geometry"/>
        </mxCell>
        <mxCell id="7wpPZPEq17KUTbX_LZ4O-6" value="&lt;font style=&quot;font-size: 12px&quot;&gt;8400&lt;/font&gt;" style="shape=dimension;whiteSpace=wrap;html=1;align=center;points=[];verticalAlign=bottom;spacingBottom=-5;labelBackgroundColor=#ffffff" parent="7wpPZPEq17KUTbX_LZ4O-1" vertex="1">
          <mxGeometry x="276" y="1470" width="490" height="40" as="geometry"/>
        </mxCell>
        <mxCell id="7wpPZPEq17KUTbX_LZ4O-7" value="&lt;font style=&quot;font-size: 12px&quot;&gt;8100&lt;/font&gt;" style="shape=dimension;direction=north;whiteSpace=wrap;html=1;align=right;points=[];verticalAlign=middle;labelBackgroundColor=#ffffff" parent="7wpPZPEq17KUTbX_LZ4O-1" vertex="1">
          <mxGeometry x="770" y="40" width="40" height="480" as="geometry"/>
        </mxCell>
        <mxCell id="7wpPZPEq17KUTbX_LZ4O-8" value="&lt;font style=&quot;font-size: 12px&quot;&gt;8100&lt;/font&gt;" style="shape=dimension;direction=north;whiteSpace=wrap;html=1;align=right;points=[];verticalAlign=middle;labelBackgroundColor=#ffffff" parent="7wpPZPEq17KUTbX_LZ4O-1" vertex="1">
          <mxGeometry x="764" y="1000" width="46" height="481" as="geometry"/>
        </mxCell>
        <mxCell id="7wpPZPEq17KUTbX_LZ4O-9" value="&lt;font style=&quot;font-size: 12px&quot;&gt;8100&lt;/font&gt;" style="shape=dimension;direction=north;whiteSpace=wrap;html=1;align=right;points=[];verticalAlign=middle;labelBackgroundColor=#ffffff" parent="7wpPZPEq17KUTbX_LZ4O-1" vertex="1">
          <mxGeometry x="770" y="520" width="40" height="480" as="geometry"/>
        </mxCell>
        <mxCell id="7wpPZPEq17KUTbX_LZ4O-10" value="" style="shape=rect;dashed=0;shadow=0;html=1;whiteSpace=wrap;rotation=-180;" parent="7wpPZPEq17KUTbX_LZ4O-1" vertex="1">
          <mxGeometry x="285" y="440" width="470" height="12.5" as="geometry"/>
        </mxCell>
        <mxCell id="7wpPZPEq17KUTbX_LZ4O-11" value="&lt;font style=&quot;font-size: 10px&quot;&gt;动环实验室&lt;br&gt;60平米&lt;/font&gt;" style="text;html=1;align=center;verticalAlign=middle;resizable=0;points=[];autosize=1;rotation=0;" parent="7wpPZPEq17KUTbX_LZ4O-1" vertex="1">
          <mxGeometry x="191.06" y="195" width="80" height="30" as="geometry"/>
        </mxCell>
        <mxCell id="7wpPZPEq17KUTbX_LZ4O-12" value="&lt;font style=&quot;font-size: 12px&quot;&gt;验收实验室&lt;br&gt;60平米&lt;/font&gt;" style="text;html=1;align=center;verticalAlign=middle;resizable=0;points=[];autosize=1;rotation=0;" parent="7wpPZPEq17KUTbX_LZ4O-1" vertex="1">
          <mxGeometry x="198" y="1110" width="80" height="30" as="geometry"/>
        </mxCell>
        <mxCell id="7wpPZPEq17KUTbX_LZ4O-13" value="" style="verticalLabelPosition=bottom;html=1;verticalAlign=top;align=center;shape=mxgraph.floorplan.wallCorner;fillColor=#000000;" parent="7wpPZPEq17KUTbX_LZ4O-1" vertex="1">
          <mxGeometry x="468" y="760" width="294" height="220" as="geometry"/>
        </mxCell>
        <mxCell id="7wpPZPEq17KUTbX_LZ4O-14" value="&lt;font style=&quot;font-size: 12px&quot;&gt;4100&lt;/font&gt;" style="shape=dimension;direction=west;whiteSpace=wrap;html=1;align=center;points=[];verticalAlign=top;spacingTop=-8;labelBackgroundColor=#ffffff;rotation=90;" parent="7wpPZPEq17KUTbX_LZ4O-1" vertex="1">
          <mxGeometry x="653" y="860" width="225" height="30" as="geometry"/>
        </mxCell>
        <mxCell id="7wpPZPEq17KUTbX_LZ4O-15" value="&lt;font style=&quot;font-size: 12px&quot;&gt;储物间 20平米&lt;/font&gt;" style="text;html=1;align=center;verticalAlign=middle;resizable=0;points=[];autosize=1;rotation=0;" parent="7wpPZPEq17KUTbX_LZ4O-1" vertex="1">
          <mxGeometry x="477" y="780" width="90" height="20" as="geometry"/>
        </mxCell>
        <mxCell id="7wpPZPEq17KUTbX_LZ4O-16" value="" style="verticalLabelPosition=bottom;html=1;verticalAlign=top;align=center;shape=mxgraph.floorplan.doorLeft;aspect=fixed;rotation=-90;" parent="7wpPZPEq17KUTbX_LZ4O-1" vertex="1">
          <mxGeometry x="281.34" y="485.78" width="58.88" height="62.56" as="geometry"/>
        </mxCell>
        <mxCell id="7wpPZPEq17KUTbX_LZ4O-17" value="&lt;font style=&quot;font-size: 9px&quot;&gt;7100&lt;/font&gt;" style="shape=dimension;whiteSpace=wrap;html=1;align=center;points=[];verticalAlign=bottom;spacingBottom=-5;labelBackgroundColor=#ffffff;rotation=-90;" parent="7wpPZPEq17KUTbX_LZ4O-1" vertex="1">
          <mxGeometry x="567.82" y="231.2" width="403.88" height="21.5" as="geometry"/>
        </mxCell>
        <mxCell id="7wpPZPEq17KUTbX_LZ4O-18" value="" style="verticalLabelPosition=bottom;html=1;verticalAlign=top;align=center;shape=mxgraph.floorplan.doorRight;aspect=fixed;rotation=-90;" parent="7wpPZPEq17KUTbX_LZ4O-1" vertex="1">
          <mxGeometry x="473.26000000000005" y="760" width="56.48" height="60" as="geometry"/>
        </mxCell>
        <mxCell id="7wpPZPEq17KUTbX_LZ4O-19" value="" style="shape=rect;dashed=0;shadow=0;html=1;whiteSpace=wrap;rotation=-180;" parent="7wpPZPEq17KUTbX_LZ4O-1" vertex="1">
          <mxGeometry x="285" y="980" width="472" height="12.5" as="geometry"/>
        </mxCell>
        <mxCell id="7wpPZPEq17KUTbX_LZ4O-20" value="5100" style="shape=dimension;whiteSpace=wrap;html=1;align=center;points=[];verticalAlign=bottom;spacingBottom=-5;labelBackgroundColor=#ffffff" parent="7wpPZPEq17KUTbX_LZ4O-1" vertex="1">
          <mxGeometry x="468" y="970.5" width="296" height="22" as="geometry"/>
        </mxCell>
        <mxCell id="7wpPZPEq17KUTbX_LZ4O-21" value="" style="verticalLabelPosition=bottom;html=1;verticalAlign=top;align=center;shape=mxgraph.floorplan.doorLeft;aspect=fixed;" parent="7wpPZPEq17KUTbX_LZ4O-1" vertex="1">
          <mxGeometry x="402" y="985.75" width="65.88" height="70" as="geometry"/>
        </mxCell>
        <mxCell id="7wpPZPEq17KUTbX_LZ4O-22" value="" style="verticalLabelPosition=bottom;html=1;verticalAlign=top;align=center;shape=mxgraph.floorplan.doorRight;aspect=fixed;rotation=0;" parent="7wpPZPEq17KUTbX_LZ4O-1" vertex="1">
          <mxGeometry x="700" y="440" width="56" height="59.5" as="geometry"/>
        </mxCell>
        <mxCell id="7wpPZPEq17KUTbX_LZ4O-23" value="&lt;font style=&quot;font-size: 12px&quot;&gt;工作区&lt;br&gt;60平米&lt;/font&gt;" style="text;html=1;align=center;verticalAlign=middle;resizable=0;points=[];autosize=1;rotation=0;" parent="7wpPZPEq17KUTbX_LZ4O-1" vertex="1">
          <mxGeometry x="210" y="590" width="50" height="30" as="geometry"/>
        </mxCell>
        <mxCell id="7wpPZPEq17KUTbX_LZ4O-24" value="" style="verticalLabelPosition=bottom;html=1;verticalAlign=top;align=center;shape=mxgraph.floorplan.doorLeft;aspect=fixed;rotation=-90;" parent="7wpPZPEq17KUTbX_LZ4O-1" vertex="1">
          <mxGeometry x="280.34" y="820.44" width="58.88" height="62.56" as="geometry"/>
        </mxCell>
        <mxCell id="jZlkBipqSzcHEz2BzFz3-1" value="" style="verticalLabelPosition=bottom;align=center;dashed=0;html=1;verticalAlign=top;shape=mxgraph.pid.filters.press_filter;" parent="7wpPZPEq17KUTbX_LZ4O-1" vertex="1">
          <mxGeometry x="564.38" y="164" width="100" height="50" as="geometry"/>
        </mxCell>
        <mxCell id="jZlkBipqSzcHEz2BzFz3-2" value="机架" style="verticalLabelPosition=bottom;align=center;dashed=0;html=1;verticalAlign=top;shape=mxgraph.pid.filters.press_filter;" parent="7wpPZPEq17KUTbX_LZ4O-1" vertex="1">
          <mxGeometry x="464.37999999999994" y="164" width="100" height="50" as="geometry"/>
        </mxCell>
        <mxCell id="jZlkBipqSzcHEz2BzFz3-3" value="" style="verticalLabelPosition=bottom;align=center;dashed=0;html=1;verticalAlign=top;shape=mxgraph.pid.filters.press_filter;" parent="7wpPZPEq17KUTbX_LZ4O-1" vertex="1">
          <mxGeometry x="366.49999999999994" y="164" width="100" height="50" as="geometry"/>
        </mxCell>
        <mxCell id="jZlkBipqSzcHEz2BzFz3-4" value="" style="verticalLabelPosition=bottom;align=center;dashed=0;html=1;verticalAlign=top;shape=mxgraph.pid.filters.press_filter;" parent="7wpPZPEq17KUTbX_LZ4O-1" vertex="1">
          <mxGeometry x="570.9399999999999" y="278" width="100" height="50" as="geometry"/>
        </mxCell>
        <mxCell id="jZlkBipqSzcHEz2BzFz3-5" value="机架" style="verticalLabelPosition=bottom;align=center;dashed=0;html=1;verticalAlign=top;shape=mxgraph.pid.filters.press_filter;" parent="7wpPZPEq17KUTbX_LZ4O-1" vertex="1">
          <mxGeometry x="470.93999999999994" y="278" width="100" height="50" as="geometry"/>
        </mxCell>
        <mxCell id="jZlkBipqSzcHEz2BzFz3-6" value="" style="verticalLabelPosition=bottom;align=center;dashed=0;html=1;verticalAlign=top;shape=mxgraph.pid.filters.press_filter;" parent="7wpPZPEq17KUTbX_LZ4O-1" vertex="1">
          <mxGeometry x="373.05999999999995" y="278" width="100" height="50" as="geometry"/>
        </mxCell>
        <mxCell id="jZlkBipqSzcHEz2BzFz3-7" value="" style="verticalLabelPosition=bottom;align=center;dashed=0;html=1;verticalAlign=top;shape=mxgraph.pid.filters.press_filter;rotation=-90;" parent="7wpPZPEq17KUTbX_LZ4O-1" vertex="1">
          <mxGeometry x="680" y="110" width="100" height="50" as="geometry"/>
        </mxCell>
        <mxCell id="jZlkBipqSzcHEz2BzFz3-8" value="" style="verticalLabelPosition=bottom;align=center;dashed=0;html=1;verticalAlign=top;shape=mxgraph.pid.filters.press_filter;rotation=-90;" parent="7wpPZPEq17KUTbX_LZ4O-1" vertex="1">
          <mxGeometry x="680" y="231.2" width="100" height="50" as="geometry"/>
        </mxCell>
        <mxCell id="jZlkBipqSzcHEz2BzFz3-27" value="" style="verticalLabelPosition=bottom;html=1;verticalAlign=top;align=center;shape=mxgraph.floorplan.office_chair;shadow=0;" parent="7wpPZPEq17KUTbX_LZ4O-1" vertex="1">
          <mxGeometry x="568" y="690" width="40" height="43" as="geometry"/>
        </mxCell>
        <mxCell id="jZlkBipqSzcHEz2BzFz3-28" value="" style="shape=rect;shadow=0;" parent="7wpPZPEq17KUTbX_LZ4O-1" vertex="1">
          <mxGeometry x="523" y="710" width="130" height="50" as="geometry"/>
        </mxCell>
        <mxCell id="jZlkBipqSzcHEz2BzFz3-29" value="" style="verticalLabelPosition=bottom;html=1;verticalAlign=top;align=center;shape=mxgraph.floorplan.workstation;shadow=0;flipV=1;" parent="7wpPZPEq17KUTbX_LZ4O-1" vertex="1">
          <mxGeometry x="563" y="720" width="50" height="40" as="geometry"/>
        </mxCell>
        <mxCell id="jZlkBipqSzcHEz2BzFz3-31" value="仪表柜" style="verticalLabelPosition=bottom;html=1;verticalAlign=top;align=center;shape=mxgraph.floorplan.dresser;rotation=0;" parent="7wpPZPEq17KUTbX_LZ4O-1" vertex="1">
          <mxGeometry x="286" y="50" width="94" height="65" as="geometry"/>
        </mxCell>
        <mxCell id="jZlkBipqSzcHEz2BzFz3-33" value="" style="verticalLabelPosition=bottom;html=1;verticalAlign=top;align=center;shape=mxgraph.floorplan.office_chair;shadow=0;rotation=-180;" parent="7wpPZPEq17KUTbX_LZ4O-1" vertex="1">
          <mxGeometry x="481.5" y="485.78" width="40" height="42.78" as="geometry"/>
        </mxCell>
        <mxCell id="jZlkBipqSzcHEz2BzFz3-34" value="" style="shape=rect;shadow=0;rotation=-180;" parent="7wpPZPEq17KUTbX_LZ4O-1" vertex="1">
          <mxGeometry x="424.24" y="452.5" width="156.94" height="50" as="geometry"/>
        </mxCell>
        <mxCell id="jZlkBipqSzcHEz2BzFz3-35" value="" style="verticalLabelPosition=bottom;html=1;verticalAlign=top;align=center;shape=mxgraph.floorplan.workstation;shadow=0;flipV=1;rotation=-180;" parent="7wpPZPEq17KUTbX_LZ4O-1" vertex="1">
          <mxGeometry x="450" y="452.5" width="50" height="40" as="geometry"/>
        </mxCell>
        <mxCell id="jZlkBipqSzcHEz2BzFz3-36" value="" style="verticalLabelPosition=bottom;html=1;verticalAlign=top;align=center;shape=mxgraph.floorplan.flat_tv;rotation=-90;" parent="7wpPZPEq17KUTbX_LZ4O-1" vertex="1">
          <mxGeometry x="260" y="280" width="70" height="10" as="geometry"/>
        </mxCell>
        <mxCell id="jZlkBipqSzcHEz2BzFz3-37" value="" style="verticalLabelPosition=bottom;html=1;verticalAlign=top;align=center;shape=mxgraph.floorplan.flat_tv;rotation=-90;" parent="7wpPZPEq17KUTbX_LZ4O-1" vertex="1">
          <mxGeometry x="260" y="366" width="70" height="10" as="geometry"/>
        </mxCell>
        <mxCell id="jZlkBipqSzcHEz2BzFz3-41" value="白板" style="verticalLabelPosition=bottom;html=1;verticalAlign=top;align=center;shape=mxgraph.floorplan.window;" parent="7wpPZPEq17KUTbX_LZ4O-1" vertex="1">
          <mxGeometry x="570.94" y="430" width="100" height="10" as="geometry"/>
        </mxCell>
        <mxCell id="jZlkBipqSzcHEz2BzFz3-42" value="白板" style="verticalLabelPosition=bottom;html=1;verticalAlign=top;align=center;shape=mxgraph.floorplan.window;" parent="7wpPZPEq17KUTbX_LZ4O-1" vertex="1">
          <mxGeometry x="330" y="430" width="100" height="10" as="geometry"/>
        </mxCell>
        <mxCell id="jZlkBipqSzcHEz2BzFz3-44" value="动环展示液晶屏" style="text;html=1;align=center;verticalAlign=middle;resizable=0;points=[];autosize=1;rotation=-90;" parent="7wpPZPEq17KUTbX_LZ4O-1" vertex="1">
          <mxGeometry x="271.06" y="319" width="100" height="20" as="geometry"/>
        </mxCell>
        <mxCell id="jZlkBipqSzcHEz2BzFz3-46" value="水浸传感器" style="verticalLabelPosition=bottom;align=center;dashed=0;html=1;verticalAlign=top;shape=mxgraph.pid.piping.pulsation_dampener;" parent="7wpPZPEq17KUTbX_LZ4O-1" vertex="1">
          <mxGeometry x="744" y="328" width="9" height="11" as="geometry"/>
        </mxCell>
        <mxCell id="jZlkBipqSzcHEz2BzFz3-49" value="电池模块" style="shape=mxgraph.pid.heat_exchangers.fixed_straight_tubes_heat_exchanger;html=1;pointerEvents=1;align=center;verticalLabelPosition=bottom;verticalAlign=top;dashed=0;" parent="7wpPZPEq17KUTbX_LZ4O-1" vertex="1">
          <mxGeometry x="430" y="50" width="100" height="40" as="geometry"/>
        </mxCell>
        <mxCell id="jZlkBipqSzcHEz2BzFz3-51" value="" style="shape=image;html=1;verticalAlign=top;verticalLabelPosition=bottom;labelBackgroundColor=#ffffff;imageAspect=0;aspect=fixed;image=https://cdn0.iconfinder.com/data/icons/30-hardware-line-icons/64/Web-cam-128.png" parent="7wpPZPEq17KUTbX_LZ4O-1" vertex="1">
          <mxGeometry x="736" y="50" width="20" height="20" as="geometry"/>
        </mxCell>
        <mxCell id="jZlkBipqSzcHEz2BzFz3-52" value="" style="shape=image;html=1;verticalAlign=top;verticalLabelPosition=bottom;labelBackgroundColor=#ffffff;imageAspect=0;aspect=fixed;image=https://cdn0.iconfinder.com/data/icons/30-hardware-line-icons/64/Web-cam-128.png" parent="7wpPZPEq17KUTbX_LZ4O-1" vertex="1">
          <mxGeometry x="286" y="420" width="20" height="20" as="geometry"/>
        </mxCell>
        <mxCell id="jZlkBipqSzcHEz2BzFz3-53" value="" style="shape=image;html=1;verticalAlign=top;verticalLabelPosition=bottom;labelBackgroundColor=#ffffff;imageAspect=0;aspect=fixed;image=https://cdn0.iconfinder.com/data/icons/30-hardware-line-icons/64/Web-cam-128.png" parent="7wpPZPEq17KUTbX_LZ4O-1" vertex="1">
          <mxGeometry x="738.5" y="980" width="20" height="20" as="geometry"/>
        </mxCell>
        <mxCell id="jZlkBipqSzcHEz2BzFz3-54" value="" style="shape=image;html=1;verticalAlign=top;verticalLabelPosition=bottom;labelBackgroundColor=#ffffff;imageAspect=0;aspect=fixed;image=https://cdn0.iconfinder.com/data/icons/30-hardware-line-icons/64/Web-cam-128.png" parent="7wpPZPEq17KUTbX_LZ4O-1" vertex="1">
          <mxGeometry x="284" y="452.5" width="20" height="20" as="geometry"/>
        </mxCell>
        <mxCell id="jZlkBipqSzcHEz2BzFz3-56" value="" style="shape=image;html=1;verticalAlign=top;verticalLabelPosition=bottom;labelBackgroundColor=#ffffff;imageAspect=0;aspect=fixed;image=https://cdn0.iconfinder.com/data/icons/30-hardware-line-icons/64/Web-cam-128.png" parent="7wpPZPEq17KUTbX_LZ4O-1" vertex="1">
          <mxGeometry x="283" y="1451" width="20" height="20" as="geometry"/>
        </mxCell>
        <mxCell id="jZlkBipqSzcHEz2BzFz3-57" value="" style="shape=image;html=1;verticalAlign=top;verticalLabelPosition=bottom;labelBackgroundColor=#ffffff;imageAspect=0;aspect=fixed;image=https://cdn0.iconfinder.com/data/icons/30-hardware-line-icons/64/Web-cam-128.png" parent="7wpPZPEq17KUTbX_LZ4O-1" vertex="1">
          <mxGeometry x="738.5" y="960" width="20" height="20" as="geometry"/>
        </mxCell>
        <mxCell id="jZlkBipqSzcHEz2BzFz3-59" value="" style="shape=image;html=1;verticalAlign=top;verticalLabelPosition=bottom;labelBackgroundColor=#ffffff;imageAspect=0;aspect=fixed;image=https://cdn0.iconfinder.com/data/icons/30-hardware-line-icons/64/Web-cam-128.png" parent="7wpPZPEq17KUTbX_LZ4O-1" vertex="1">
          <mxGeometry x="285" y="50" width="20" height="20" as="geometry"/>
        </mxCell>
        <mxCell id="jZlkBipqSzcHEz2BzFz3-60" value="" style="shape=image;html=1;verticalAlign=top;verticalLabelPosition=bottom;labelBackgroundColor=#ffffff;imageAspect=0;aspect=fixed;image=https://cdn0.iconfinder.com/data/icons/30-hardware-line-icons/64/Web-cam-128.png" parent="7wpPZPEq17KUTbX_LZ4O-1" vertex="1">
          <mxGeometry x="413.05999999999995" y="231.2" width="20" height="20" as="geometry"/>
        </mxCell>
        <mxCell id="jZlkBipqSzcHEz2BzFz3-61" value="" style="shape=image;html=1;verticalAlign=top;verticalLabelPosition=bottom;labelBackgroundColor=#ffffff;imageAspect=0;aspect=fixed;image=https://cdn0.iconfinder.com/data/icons/30-hardware-line-icons/64/Web-cam-128.png" parent="7wpPZPEq17KUTbX_LZ4O-1" vertex="1">
          <mxGeometry x="738.5" y="420" width="20" height="20" as="geometry"/>
        </mxCell>
        <mxCell id="jZlkBipqSzcHEz2BzFz3-63" value="电表箱" style="shape=image;html=1;verticalAlign=top;verticalLabelPosition=bottom;labelBackgroundColor=#ffffff;imageAspect=0;aspect=fixed;image=https://cdn0.iconfinder.com/data/icons/30-hardware-line-icons/64/Cabinet-128.png" parent="7wpPZPEq17KUTbX_LZ4O-1" vertex="1">
          <mxGeometry x="560" y="50" width="40" height="40" as="geometry"/>
        </mxCell>
        <mxCell id="jZlkBipqSzcHEz2BzFz3-64" value="电表箱" style="shape=image;html=1;verticalAlign=top;verticalLabelPosition=bottom;labelBackgroundColor=#ffffff;imageAspect=0;aspect=fixed;image=https://cdn0.iconfinder.com/data/icons/30-hardware-line-icons/64/Cabinet-128.png;rotation=90;" parent="7wpPZPEq17KUTbX_LZ4O-1" vertex="1">
          <mxGeometry x="714" y="1000" width="50" height="50" as="geometry"/>
        </mxCell>
        <mxCell id="jZlkBipqSzcHEz2BzFz3-68" value="" style="shape=image;html=1;verticalAlign=top;verticalLabelPosition=bottom;labelBackgroundColor=#ffffff;imageAspect=0;aspect=fixed;image=https://cdn4.iconfinder.com/data/icons/office-time/512/4-128.png;rotation=-90;" parent="7wpPZPEq17KUTbX_LZ4O-1" vertex="1">
          <mxGeometry x="288.5" y="1295" width="62" height="62" as="geometry"/>
        </mxCell>
        <mxCell id="jZlkBipqSzcHEz2BzFz3-69" value="温控" style="verticalLabelPosition=bottom;align=center;dashed=0;html=1;verticalAlign=top;shape=mxgraph.pid.piping.pulsation_dampener;rotation=-90;" parent="7wpPZPEq17KUTbX_LZ4O-1" vertex="1">
          <mxGeometry x="288.5" y="153" width="9" height="11" as="geometry"/>
        </mxCell>
        <mxCell id="jZlkBipqSzcHEz2BzFz3-70" value="红外" style="verticalLabelPosition=bottom;align=center;dashed=0;html=1;verticalAlign=top;shape=mxgraph.pid.piping.pulsation_dampener;rotation=0;" parent="7wpPZPEq17KUTbX_LZ4O-1" vertex="1">
          <mxGeometry x="369" y="64.5" width="9" height="11" as="geometry"/>
        </mxCell>
        <mxCell id="jZlkBipqSzcHEz2BzFz3-74" value="烟感" style="verticalLabelPosition=bottom;align=center;dashed=0;html=1;verticalAlign=top;shape=mxgraph.pid.piping.pulsation_dampener;rotation=0;" parent="7wpPZPEq17KUTbX_LZ4O-1" vertex="1">
          <mxGeometry x="412.26" y="110" width="9" height="11" as="geometry"/>
        </mxCell>
        <mxCell id="jZlkBipqSzcHEz2BzFz3-76" value="换电柜" style="shape=image;html=1;verticalAlign=top;verticalLabelPosition=bottom;labelBackgroundColor=#ffffff;imageAspect=0;aspect=fixed;image=https://cdn4.iconfinder.com/data/icons/office-time/512/4-128.png;rotation=-90;" parent="7wpPZPEq17KUTbX_LZ4O-1" vertex="1">
          <mxGeometry x="288.5" y="1335" width="62" height="62" as="geometry"/>
        </mxCell>
        <mxCell id="jZlkBipqSzcHEz2BzFz3-77" value="" style="shape=image;html=1;verticalAlign=top;verticalLabelPosition=bottom;labelBackgroundColor=#ffffff;imageAspect=0;aspect=fixed;image=https://cdn4.iconfinder.com/data/icons/office-time/512/4-128.png;rotation=-90;" parent="7wpPZPEq17KUTbX_LZ4O-1" vertex="1">
          <mxGeometry x="288.5" y="1375" width="62" height="62" as="geometry"/>
        </mxCell>
        <mxCell id="jZlkBipqSzcHEz2BzFz3-78" value="" style="shape=image;html=1;verticalAlign=top;verticalLabelPosition=bottom;labelBackgroundColor=#ffffff;imageAspect=0;aspect=fixed;image=https://cdn0.iconfinder.com/data/icons/30-hardware-line-icons/64/Web-cam-128.png" parent="7wpPZPEq17KUTbX_LZ4O-1" vertex="1">
          <mxGeometry x="733" y="1450" width="20" height="20" as="geometry"/>
        </mxCell>
        <mxCell id="jZlkBipqSzcHEz2BzFz3-80" value="" style="verticalLabelPosition=bottom;html=1;verticalAlign=top;align=center;shape=mxgraph.floorplan.table;rotation=-90;" parent="7wpPZPEq17KUTbX_LZ4O-1" vertex="1">
          <mxGeometry x="226" y="1144" width="176" height="50" as="geometry"/>
        </mxCell>
        <mxCell id="jZlkBipqSzcHEz2BzFz3-81" value="标签打印机" style="verticalLabelPosition=bottom;html=1;verticalAlign=top;align=center;shape=mxgraph.floorplan.printer;rotation=-90;" parent="7wpPZPEq17KUTbX_LZ4O-1" vertex="1">
          <mxGeometry x="295" y="1157" width="40" height="47" as="geometry"/>
        </mxCell>
        <mxCell id="jZlkBipqSzcHEz2BzFz3-82" value="" style="verticalLabelPosition=bottom;html=1;verticalAlign=top;align=center;shape=mxgraph.floorplan.printer;rotation=-90;" parent="7wpPZPEq17KUTbX_LZ4O-1" vertex="1">
          <mxGeometry x="296" y="1110" width="40" height="47" as="geometry"/>
        </mxCell>
        <mxCell id="jZlkBipqSzcHEz2BzFz3-83" value="" style="verticalLabelPosition=bottom;html=1;verticalAlign=top;align=center;shape=mxgraph.floorplan.printer;rotation=-90;" parent="7wpPZPEq17KUTbX_LZ4O-1" vertex="1">
          <mxGeometry x="295" y="1201.5" width="40" height="47" as="geometry"/>
        </mxCell>
        <mxCell id="jZlkBipqSzcHEz2BzFz3-88" value="电表箱" style="shape=image;html=1;verticalAlign=top;verticalLabelPosition=bottom;labelBackgroundColor=#ffffff;imageAspect=0;aspect=fixed;image=https://cdn0.iconfinder.com/data/icons/30-hardware-line-icons/64/Cabinet-128.png;rotation=90;" parent="7wpPZPEq17KUTbX_LZ4O-1" vertex="1">
          <mxGeometry x="714" y="1041" width="50" height="50" as="geometry"/>
        </mxCell>
        <mxCell id="jZlkBipqSzcHEz2BzFz3-89" value="电表箱" style="shape=image;html=1;verticalAlign=top;verticalLabelPosition=bottom;labelBackgroundColor=#ffffff;imageAspect=0;aspect=fixed;image=https://cdn0.iconfinder.com/data/icons/30-hardware-line-icons/64/Cabinet-128.png;rotation=90;" parent="7wpPZPEq17KUTbX_LZ4O-1" vertex="1">
          <mxGeometry x="714" y="1087" width="50" height="50" as="geometry"/>
        </mxCell>
        <mxCell id="jZlkBipqSzcHEz2BzFz3-91" value="设备柜" style="shape=image;html=1;verticalAlign=top;verticalLabelPosition=bottom;labelBackgroundColor=#ffffff;imageAspect=0;aspect=fixed;image=https://cdn3.iconfinder.com/data/icons/lined-office-1/64/Artboard_11-128.png;rotation=-91;" parent="7wpPZPEq17KUTbX_LZ4O-1" vertex="1">
          <mxGeometry x="288.5" y="696" width="78" height="78" as="geometry"/>
        </mxCell>
        <mxCell id="jZlkBipqSzcHEz2BzFz3-92" value="资料柜" style="shape=image;html=1;verticalAlign=top;verticalLabelPosition=bottom;labelBackgroundColor=#ffffff;imageAspect=0;aspect=fixed;image=https://cdn3.iconfinder.com/data/icons/lined-office-1/64/Artboard_11-128.png;rotation=-91;" parent="7wpPZPEq17KUTbX_LZ4O-1" vertex="1">
          <mxGeometry x="285" y="630" width="78" height="78" as="geometry"/>
        </mxCell>
        <mxCell id="jZlkBipqSzcHEz2BzFz3-97" value="智慧照明" style="shape=image;html=1;verticalAlign=top;verticalLabelPosition=bottom;labelBackgroundColor=#ffffff;imageAspect=0;aspect=fixed;image=https://cdn3.iconfinder.com/data/icons/android-ui-5/10/16-128.png;rotation=0;" parent="7wpPZPEq17KUTbX_LZ4O-1" vertex="1">
          <mxGeometry x="618" y="1416" width="35" height="35" as="geometry"/>
        </mxCell>
        <mxCell id="jZlkBipqSzcHEz2BzFz3-98" value="" style="verticalLabelPosition=bottom;html=1;verticalAlign=top;align=center;shape=mxgraph.floorplan.office_chair;shadow=0;rotation=-90;" parent="7wpPZPEq17KUTbX_LZ4O-1" vertex="1">
          <mxGeometry x="685" y="597" width="40" height="43" as="geometry"/>
        </mxCell>
        <mxCell id="jZlkBipqSzcHEz2BzFz3-99" value="" style="shape=rect;shadow=0;rotation=-90;" parent="7wpPZPEq17KUTbX_LZ4O-1" vertex="1">
          <mxGeometry x="665" y="590" width="130" height="50" as="geometry"/>
        </mxCell>
        <mxCell id="jZlkBipqSzcHEz2BzFz3-100" value="" style="verticalLabelPosition=bottom;html=1;verticalAlign=top;align=center;shape=mxgraph.floorplan.workstation;shadow=0;flipV=1;rotation=-90;" parent="7wpPZPEq17KUTbX_LZ4O-1" vertex="1">
          <mxGeometry x="705" y="600" width="50" height="40" as="geometry"/>
        </mxCell>
        <mxCell id="jZlkBipqSzcHEz2BzFz3-104" value="" style="verticalLabelPosition=bottom;html=1;verticalAlign=top;align=center;shape=mxgraph.floorplan.workstation;shadow=0;flipV=1;rotation=-180;" parent="7wpPZPEq17KUTbX_LZ4O-1" vertex="1">
          <mxGeometry x="514.38" y="452.5" width="50" height="40" as="geometry"/>
        </mxCell>
        <mxCell id="jZlkBipqSzcHEz2BzFz3-105" value="智慧消防" style="shape=image;html=1;verticalAlign=top;verticalLabelPosition=bottom;labelBackgroundColor=#ffffff;imageAspect=0;aspect=fixed;image=https://cdn2.iconfinder.com/data/icons/font-awesome/1792/fire-extinguisher-128.png" parent="7wpPZPEq17KUTbX_LZ4O-1" vertex="1">
          <mxGeometry x="500" y="992.5" width="36" height="36" as="geometry"/>
        </mxCell>
        <mxCell id="jZlkBipqSzcHEz2BzFz3-106" value="消防" style="shape=image;html=1;verticalAlign=top;verticalLabelPosition=bottom;labelBackgroundColor=#ffffff;imageAspect=0;aspect=fixed;image=https://cdn2.iconfinder.com/data/icons/font-awesome/1792/fire-extinguisher-128.png;rotation=-90;" parent="7wpPZPEq17KUTbX_LZ4O-1" vertex="1">
          <mxGeometry x="283" y="580" width="29" height="29" as="geometry"/>
        </mxCell>
        <mxCell id="jZlkBipqSzcHEz2BzFz3-110" value="智慧烟感" style="shape=image;html=1;verticalAlign=top;verticalLabelPosition=bottom;labelBackgroundColor=#ffffff;imageAspect=0;aspect=fixed;image=https://cdn4.iconfinder.com/data/icons/winter-1-2/512/Winter-36-128.png" parent="7wpPZPEq17KUTbX_LZ4O-1" vertex="1">
          <mxGeometry x="725" y="1352" width="28" height="28" as="geometry"/>
        </mxCell>
        <mxCell id="jZlkBipqSzcHEz2BzFz3-111" value="环境监测" style="outlineConnect=0;fontColor=#232F3E;gradientColor=none;fillColor=#BE0917;strokeColor=none;dashed=0;verticalLabelPosition=bottom;verticalAlign=top;align=center;html=1;fontSize=12;fontStyle=0;aspect=fixed;pointerEvents=1;shape=mxgraph.aws4.development_environment;rotation=90;" parent="7wpPZPEq17KUTbX_LZ4O-1" vertex="1">
          <mxGeometry x="715" y="1194.25" width="38" height="34.59" as="geometry"/>
        </mxCell>
        <mxCell id="jZlkBipqSzcHEz2BzFz3-112" value="智慧门锁" style="verticalLabelPosition=bottom;html=1;verticalAlign=top;align=center;shape=mxgraph.floorplan.doorLeft;aspect=fixed;rotation=90;" parent="7wpPZPEq17KUTbX_LZ4O-1" vertex="1">
          <mxGeometry x="704.4699999999999" y="1270" width="47.06" height="50" as="geometry"/>
        </mxCell>
        <mxCell id="7wpPZPEq17KUTbX_LZ4O-27" value="Untitled Layer" parent="7wpPZPEq17KUTbX_LZ4O-0"/>
      </root>
    </mxGraphModel>
  </diagram>
</mxfile>
